<svg width="1753" height="333" viewBox="0 0 1753 333" fill="none" xmlns="http://www.w3.org/2000/svg">
<path fill-rule="evenodd" clip-rule="evenodd" d="M139.5 166.5H0V27C77.0437 27 139.5 89.4562 139.5 166.5ZM279 166.5V27C201.957 27 139.5 89.4562 139.5 166.5H279ZM139.5 306H0V166.5C77.0438 166.5 139.5 228.957 139.5 306ZM139.5 306H279V166.5C201.957 166.5 139.5 228.957 139.5 306Z" fill="white"/>
<path d="M408.408 254V74.8H441.176V228.4H520.536V254H408.408ZM592.416 257.072C581.493 257.072 572.533 255.365 565.536 251.952C558.539 248.368 553.333 243.675 549.92 237.872C546.507 232.069 544.8 225.669 544.8 218.672C544.8 206.896 549.408 197.339 558.624 190C567.84 182.661 581.664 178.992 600.096 178.992H632.352V175.92C632.352 167.216 629.877 160.816 624.928 156.72C619.979 152.624 613.835 150.576 606.496 150.576C599.84 150.576 594.037 152.197 589.088 155.44C584.139 158.512 581.067 163.12 579.872 169.264H547.872C548.725 160.048 551.797 152.027 557.088 145.2C562.549 138.373 569.547 133.168 578.08 129.584C586.613 125.829 596.171 123.952 606.752 123.952C624.843 123.952 639.093 128.475 649.504 137.52C659.915 146.565 665.12 159.365 665.12 175.92V254H637.216L634.144 233.52C630.389 240.347 625.099 245.979 618.272 250.416C611.616 254.853 602.997 257.072 592.416 257.072ZM599.84 231.472C609.227 231.472 616.48 228.4 621.6 222.256C626.891 216.112 630.219 208.517 631.584 199.472H603.68C594.976 199.472 588.747 201.093 584.992 204.336C581.237 207.408 579.36 211.248 579.36 215.856C579.36 220.805 581.237 224.645 584.992 227.376C588.747 230.107 593.696 231.472 599.84 231.472ZM708.012 310.32L737.452 245.552H729.772L680.364 127.024H715.948L751.532 216.368L788.652 127.024H823.468L742.828 310.32H708.012ZM894.818 257.072C882.53 257.072 871.437 254.256 861.538 248.624C851.81 242.992 844.045 235.227 838.242 225.328C832.61 215.259 829.794 203.653 829.794 190.512C829.794 177.371 832.695 165.851 838.498 155.952C844.301 145.883 852.066 138.032 861.794 132.4C871.693 126.768 882.786 123.952 895.074 123.952C907.191 123.952 918.114 126.768 927.842 132.4C937.741 138.032 945.506 145.883 951.138 155.952C956.941 165.851 959.842 177.371 959.842 190.512C959.842 203.653 956.941 215.259 951.138 225.328C945.506 235.227 937.741 242.992 927.842 248.624C917.943 254.256 906.935 257.072 894.818 257.072ZM894.818 228.656C903.351 228.656 910.775 225.499 917.09 219.184C923.405 212.699 926.562 203.141 926.562 190.512C926.562 177.883 923.405 168.411 917.09 162.096C910.775 155.611 903.437 152.368 895.074 152.368C886.37 152.368 878.861 155.611 872.546 162.096C866.402 168.411 863.33 177.883 863.33 190.512C863.33 203.141 866.402 212.699 872.546 219.184C878.861 225.499 886.285 228.656 894.818 228.656ZM1036.76 257.072C1020.88 257.072 1008.6 252.123 999.892 242.224C991.359 232.325 987.092 217.819 987.092 198.704V127.024H1019.6V195.632C1019.6 206.555 1021.82 214.917 1026.26 220.72C1030.7 226.523 1037.69 229.424 1047.25 229.424C1056.3 229.424 1063.72 226.181 1069.52 219.696C1075.5 213.211 1078.48 204.165 1078.48 192.56V127.024H1111.25V254H1082.32L1079.76 232.496C1075.84 240.005 1070.12 245.979 1062.61 250.416C1055.27 254.853 1046.65 257.072 1036.76 257.072ZM1201.47 254C1188.15 254 1177.49 250.757 1169.47 244.272C1161.44 237.787 1157.43 226.267 1157.43 209.712V154.416H1135.67V127.024H1157.43L1161.27 92.976H1190.2V127.024H1224.51V154.416H1190.2V209.968C1190.2 216.112 1191.48 220.379 1194.04 222.768C1196.77 224.987 1201.38 226.096 1207.87 226.096H1223.74V254H1201.47ZM1314.41 254V74.8H1347.18V228.4H1426.54V254H1314.41ZM1498.42 257.072C1487.49 257.072 1478.53 255.365 1471.54 251.952C1464.54 248.368 1459.33 243.675 1455.92 237.872C1452.51 232.069 1450.8 225.669 1450.8 218.672C1450.8 206.896 1455.41 197.339 1464.62 190C1473.84 182.661 1487.66 178.992 1506.1 178.992H1538.35V175.92C1538.35 167.216 1535.88 160.816 1530.93 156.72C1525.98 152.624 1519.83 150.576 1512.5 150.576C1505.84 150.576 1500.04 152.197 1495.09 155.44C1490.14 158.512 1487.07 163.12 1485.87 169.264H1453.87C1454.73 160.048 1457.8 152.027 1463.09 145.2C1468.55 138.373 1475.55 133.168 1484.08 129.584C1492.61 125.829 1502.17 123.952 1512.75 123.952C1530.84 123.952 1545.09 128.475 1555.5 137.52C1565.91 146.565 1571.12 159.365 1571.12 175.92V254H1543.22L1540.14 233.52C1536.39 240.347 1531.1 245.979 1524.27 250.416C1517.62 254.853 1509 257.072 1498.42 257.072ZM1505.84 231.472C1515.23 231.472 1522.48 228.4 1527.6 222.256C1532.89 216.112 1536.22 208.517 1537.58 199.472H1509.68C1500.98 199.472 1494.75 201.093 1490.99 204.336C1487.24 207.408 1485.36 211.248 1485.36 215.856C1485.36 220.805 1487.24 224.645 1490.99 227.376C1494.75 230.107 1499.7 231.472 1505.84 231.472ZM1677.65 257.072C1668.1 257.072 1659.73 255.28 1652.57 251.696C1645.4 248.112 1639.6 243.077 1635.16 236.592L1631.57 254H1602.39V69.68H1635.16V145.2C1639.25 139.568 1644.63 134.619 1651.29 130.352C1658.11 126.085 1666.9 123.952 1677.65 123.952C1689.6 123.952 1700.27 126.853 1709.65 132.656C1719.04 138.459 1726.46 146.395 1731.93 156.464C1737.39 166.533 1740.12 177.968 1740.12 190.768C1740.12 203.568 1737.39 215.003 1731.93 225.072C1726.46 234.971 1719.04 242.821 1709.65 248.624C1700.27 254.256 1689.6 257.072 1677.65 257.072ZM1670.74 228.4C1681.15 228.4 1689.77 224.901 1696.6 217.904C1703.42 210.907 1706.84 201.861 1706.84 190.768C1706.84 179.675 1703.42 170.544 1696.6 163.376C1689.77 156.208 1681.15 152.624 1670.74 152.624C1660.16 152.624 1651.46 156.208 1644.63 163.376C1637.97 170.373 1634.65 179.419 1634.65 190.512C1634.65 201.605 1637.97 210.736 1644.63 217.904C1651.46 224.901 1660.16 228.4 1670.74 228.4Z" fill="white"/>
</svg>
